<svg width="18" height="20" viewBox="0 0 18 20" fill="none" xmlns="http://www.w3.org/2000/svg">
    <path d="M6.72266 12.2773C7.35286 12.9076 8.11198 13.2227 9 13.2227C9.88802 13.2227 10.6471 12.9076 11.2773 12.2773C11.9076 11.6471 12.2227 10.888 12.2227 10C12.2227 9.11198 11.9076 8.35286 11.2773 7.72266C10.6471 7.09245 9.88802 6.77734 9 6.77734C8.11198 6.77734 7.35286 7.09245 6.72266 7.72266C6.09245 8.35286 5.77734 9.11198 5.77734 10C5.77734 10.888 6.09245 11.6471 6.72266 12.2773ZM15.832 10.9023L17.7656 12.4062C17.9661 12.5495 17.9948 12.75 17.8516 13.0078L16.0039 16.1875C15.8893 16.388 15.7031 16.4453 15.4453 16.3594L13.168 15.457C12.5664 15.8867 12.0508 16.1875 11.6211 16.3594L11.2773 18.7656C11.2201 19.0234 11.0768 19.1523 10.8477 19.1523H7.15234C6.92318 19.1523 6.77995 19.0234 6.72266 18.7656L6.37891 16.3594C5.83464 16.1302 5.31901 15.8294 4.83203 15.457L2.55469 16.3594C2.29688 16.4453 2.11068 16.388 1.99609 16.1875L0.148438 13.0078C0.00520833 12.75 0.0338542 12.5495 0.234375 12.4062L2.16797 10.9023C2.13932 10.7018 2.125 10.401 2.125 10C2.125 9.59896 2.13932 9.29818 2.16797 9.09766L0.234375 7.59375C0.0338542 7.45052 0.00520833 7.25 0.148438 6.99219L1.99609 3.8125C2.11068 3.61198 2.29688 3.55469 2.55469 3.64062L4.83203 4.54297C5.43359 4.11328 5.94922 3.8125 6.37891 3.64062L6.72266 1.23438C6.77995 0.976562 6.92318 0.847656 7.15234 0.847656H10.8477C11.0768 0.847656 11.2201 0.976562 11.2773 1.23438L11.6211 3.64062C12.1654 3.86979 12.681 4.17057 13.168 4.54297L15.4453 3.64062C15.7031 3.55469 15.8893 3.61198 16.0039 3.8125L17.8516 6.99219C17.9948 7.25 17.9661 7.45052 17.7656 7.59375L15.832 9.09766C15.8607 9.29818 15.875 9.59896 15.875 10C15.875 10.401 15.8607 10.7018 15.832 10.9023Z"
          fill="#8083A3"/>
</svg>
