<svg width="16" height="16" viewBox="0 0 16 16" fill="none" xmlns="http://www.w3.org/2000/svg">
<path d="M11.7617 8.08694C11.7617 8.29788 11.6797 8.47366 11.5156 8.61429C11.375 8.75491 11.1992 8.82523 10.9883 8.82523H3.5L0.511719 11.8487V1.33694C0.511719 1.12601 0.582031 0.950226 0.722656 0.809601C0.863281 0.668976 1.03906 0.598663 1.25 0.598663H10.9883C11.1992 0.598663 11.375 0.668976 11.5156 0.809601C11.6797 0.950226 11.7617 1.12601 11.7617 1.33694V8.08694ZM14.75 3.58694C14.9609 3.58694 15.1367 3.65726 15.2773 3.79788C15.418 3.93851 15.4883 4.11429 15.4883 4.32523V15.5752L12.5 12.5869H4.23828C4.02734 12.5869 3.85156 12.5166 3.71094 12.376C3.57031 12.2354 3.5 12.0596 3.5 11.8487V10.3369H13.2383V3.58694H14.75Z" fill="#FAFBFF"/>
</svg>
